<mxfile host="app.diagrams.net" modified="2023-09-12T02:43:25.781Z" agent="Mozilla/5.0 (Windows NT 10.0; Win64; x64) AppleWebKit/537.36 (KHTML, like Gecko) Chrome/116.0.0.0 Safari/537.36 Edg/116.0.1938.76" etag="i4s09hfeZ1p6VIetfukY" version="21.7.2" type="github">
  <diagram name="第 1 页" id="lxvwrAN3AoyhyTKlFxi0">
    <mxGraphModel dx="746" dy="467" grid="0" gridSize="10" guides="1" tooltips="1" connect="1" arrows="1" fold="1" page="1" pageScale="1" pageWidth="827" pageHeight="1169" math="0" shadow="0">
      <root>
        <mxCell id="0" />
        <mxCell id="1" parent="0" />
        <mxCell id="HYZFGHxT5eGsIeUkylK0-13" style="edgeStyle=orthogonalEdgeStyle;rounded=0;orthogonalLoop=1;jettySize=auto;html=1;exitX=0.5;exitY=1;exitDx=0;exitDy=0;entryX=0.5;entryY=0;entryDx=0;entryDy=0;" edge="1" parent="1" source="HYZFGHxT5eGsIeUkylK0-2" target="HYZFGHxT5eGsIeUkylK0-12">
          <mxGeometry relative="1" as="geometry" />
        </mxCell>
        <mxCell id="HYZFGHxT5eGsIeUkylK0-2" value="申请人" style="rounded=1;whiteSpace=wrap;html=1;fontSize=12;glass=0;strokeWidth=1;shadow=0;" vertex="1" parent="1">
          <mxGeometry x="180" y="120" width="120" height="40" as="geometry" />
        </mxCell>
        <mxCell id="HYZFGHxT5eGsIeUkylK0-5" style="edgeStyle=orthogonalEdgeStyle;rounded=0;orthogonalLoop=1;jettySize=auto;html=1;exitX=0.5;exitY=1;exitDx=0;exitDy=0;entryX=0.5;entryY=0;entryDx=0;entryDy=0;" edge="1" parent="1" source="HYZFGHxT5eGsIeUkylK0-6" target="HYZFGHxT5eGsIeUkylK0-2">
          <mxGeometry relative="1" as="geometry" />
        </mxCell>
        <mxCell id="HYZFGHxT5eGsIeUkylK0-6" value="开始" style="ellipse;whiteSpace=wrap;html=1;aspect=fixed;fillColor=#dae8fc;strokeColor=#6c8ebf;" vertex="1" parent="1">
          <mxGeometry x="220" y="50" width="40" height="40" as="geometry" />
        </mxCell>
        <mxCell id="HYZFGHxT5eGsIeUkylK0-7" value="结束" style="ellipse;whiteSpace=wrap;html=1;aspect=fixed;fillColor=#d5e8d4;strokeColor=#82b366;" vertex="1" parent="1">
          <mxGeometry x="220" y="280" width="40" height="40" as="geometry" />
        </mxCell>
        <mxCell id="HYZFGHxT5eGsIeUkylK0-8" value="&lt;mxGraphModel&gt;&lt;root&gt;&lt;mxCell id=“0”/&gt;&lt;mxCell id=“1” parent=“0”/&gt;&lt;mxCell id=“2” value=“直线领导” style=“rounded=1;whiteSpace=wrap;html=1;fontSize=12;glass=0;strokeWidth=1;shadow=0;” vertex=“1” parent=“1”&gt;&lt;mxGeometry x=“160” y=“140” width=“120” height=“40” as=“geometry”/&gt;&lt;/mxCell&gt;&lt;/root&gt;&lt;/mxGraphModel&gt;" style="text;whiteSpace=wrap;html=1;" vertex="1" parent="1">
          <mxGeometry x="240" y="330" width="60" height="50" as="geometry" />
        </mxCell>
        <mxCell id="HYZFGHxT5eGsIeUkylK0-14" style="edgeStyle=orthogonalEdgeStyle;rounded=0;orthogonalLoop=1;jettySize=auto;html=1;exitX=0.5;exitY=1;exitDx=0;exitDy=0;entryX=0.5;entryY=0;entryDx=0;entryDy=0;" edge="1" parent="1" source="HYZFGHxT5eGsIeUkylK0-12" target="HYZFGHxT5eGsIeUkylK0-7">
          <mxGeometry relative="1" as="geometry" />
        </mxCell>
        <mxCell id="HYZFGHxT5eGsIeUkylK0-12" value="OA处理" style="rounded=1;whiteSpace=wrap;html=1;fontSize=12;glass=0;strokeWidth=1;shadow=0;" vertex="1" parent="1">
          <mxGeometry x="180" y="200" width="120" height="40" as="geometry" />
        </mxCell>
      </root>
    </mxGraphModel>
  </diagram>
</mxfile>
